{"title":"Talang 2010 Avsnitt 11 av 11 Final 20100604 5fps.avi","uid":8794122,"size":114184862,"categoryP":"video","categoryS":"tv_shows","magnet":"?xt=urn:btih:f8b9efe3469c98304f21b9faa4bf92a8824c10cc&amp;dn=Talang+2010+Avsnitt+11+av+11+Final+20100604+5fps.avi&amp;tr=udp%3A%2F%2Ftracker.openbittorrent.com%3A80&amp;tr=udp%3A%2F%2Fopen.demonii.com%3A1337&amp;tr=udp%3A%2F%2Ftracker.coppersurfer.tk%3A6969&amp;tr=udp%3A%2F%2Fexodus.desync.com%3A6969","seeders":0,"leechers":0,"uploader":null,"files":1,"time":1376028738,"description":"Talang 2010 Avsnitt 11 av 11 Final 20100604 5fps.avi\n\nGeneral\nComplete name                            : Talang 2010 Avsnitt 11 av 11 Final 20100604 5fps.avi\nFormat                                   : AVI\nFormat/Info                              : Audio Video Interleave\nFile size                                : 109 MiB\nDuration                                 : 1h 27mn\nOverall bit rate                         : 173 Kbps\nWriting application                      : Lavf52.39.1\n\nVideo\nID                                       : 0\nFormat                                   : MPEG-4 Visual\nFormat profile                           : Simple@L1\nFormat settings, BVOP                    : No\nFormat settings, QPel                    : No\nFormat settings, GMC                     : No warppoints\nFormat settings, Matrix                  : Default (H.263)\nCodec ID                                 : FMP4\nDuration                                 : 1h 27mn\nBit rate                                 : 100 Kbps\nWidth                                    : 352 pixels\nHeight                                   : 288 pixels\nDisplay aspect ratio                     : 5:4\nFrame rate                               : 5.000 fps\nStandard                                 : PAL\nColor space                              : YUV\nChroma subsampling                       : 4:2:0\nBit depth                                : 8 bits\nScan type                                : Progressive\nCompression mode                         : Lossy\nBits/(Pixel*Frame)                       : 0.198\nStream size                              : 63.0 MiB (58%)\nWriting library                          : Lavc52.37.0\n\nAudio\nID                                       : 1\nFormat                                   : MPEG Audio\nFormat version                           : Version 1\nFormat profile                           : Layer 3\nMode                                     : Joint stereo\nMode extension                           : MS Stereo\nCodec ID                                 : 55\nCodec ID/Hint                            : MP3\nDuration                                 : 1h 27mn\nBit rate mode                            : Constant\nBit rate                                 : 64.0 Kbps\nChannel(s)                               : 2 channels\nSampling rate                            : 48.0 KHz\nCompression mode                         : Lossy\nStream size                              : 40.2 MiB (37%)\nAlignment                                : Aligned on interleaves\nInterleave, duration                     : 24 ms (0.12 video frame)\n\n","torrent":{"xt":"urn:btih:f8b9efe3469c98304f21b9faa4bf92a8824c10cc","amp;dn":"Talang+2010+Avsnitt+11+av+11+Final+20100604+5fps.avi","amp;tr":["udp%3A%2F%2Ftracker.openbittorrent.com%3A80","udp%3A%2F%2Fopen.demonii.com%3A1337","udp%3A%2F%2Ftracker.coppersurfer.tk%3A6969","udp%3A%2F%2Fexodus.desync.com%3A6969"],"infoHash":"f8b9efe3469c98304f21b9faa4bf92a8824c10cc","infoHashBuffer":{"type":"Buffer","data":[248,185,239,227,70,156,152,48,79,33,185,250,164,191,146,168,130,76,16,204]},"announce":[],"urlList":[]}}